<svg viewBox="0 0 1440 900" xmlns="http://www.w3.org/2000/svg"><path d="m0 0h1440v900h-1440z" fill="#f2f2f2"/><g opacity=".06"><path d="m1185.88 0 84.71 81.82 84.7-81.82z" fill="#d0d0d0"/><path d="m1440 81.82-84.71-81.82-84.7 81.82z" fill="#e3e3e3"/><path d="m1270.59 81.82-84.71-81.82-84.7 81.82z" fill="#d1d1d1"/><path d="m1016.47 0 84.71 81.82 84.7-81.82z" fill="#d3d3d3"/><path d="m1355.29 0 84.71 81.82v-81.82z" fill="#d9d9d9"/><path d="m1101.18 81.82-84.71-81.82-84.71 81.82z" fill="#cecece"/><path d="m931.76 81.82-84.7-81.82-84.71 81.82z" fill="#eaeaea"/><path d="m677.65 0 84.7 81.82 84.71-81.82z" fill="#f4f4f4"/><path d="m847.06 0 84.7 81.82 84.71-81.82z" fill="#d7d7d7"/><path d="m762.35 81.82-84.7-81.82-84.71 81.82z" fill="#f4f4f4"/><path d="m592.94 81.82-84.7-81.82-84.71 81.82z" fill="#f1f1f1"/><path d="m338.82 0 84.71 81.82 84.71-81.82z" fill="#f0f0f0"/><path d="m508.24 0 84.7 81.82 84.71-81.82z" fill="#ededed"/><path d="m423.53 81.82-84.71-81.82-84.7 81.82z" fill="#e4e4e4"/><path d="m254.12 81.82-84.71-81.82-84.7 81.82z" fill="#d5d5d5"/><path d="m84.71 81.82-84.71-81.82v81.82z" fill="#d9d9d9"/><path d="m0 0 84.71 81.82 84.7-81.82z" fill="#cfcfcf"/><path d="m169.41 0 84.71 81.82 84.7-81.82z" fill="#dfdfdf"/><path d="m1355.29 163.64-84.7-81.82-84.71 81.82z" fill="#ececec"/><path d="m1185.88 163.64-84.7-81.82-84.71 81.82z" fill="#ebebeb"/><path d="m931.76 81.82 84.71 81.82 84.71-81.82z" fill="#e4e4e4"/><path d="m1101.18 81.82 84.7 81.82 84.71-81.82z" fill="#989898"/><path d="m1440 163.64v-81.82l-84.71 81.82z" fill="#d7d7d7"/><path d="m1270.59 81.82 84.7 81.82 84.71-81.82z" fill="#e6e6e6"/><path d="m1016.47 163.64-84.71-81.82-84.7 81.82z" fill="#ebebeb"/><path d="m847.06 163.64-84.71-81.82-84.7 81.82z" fill="#c7c7c7"/><path d="m592.94 81.82 84.71 81.82 84.7-81.82z" fill="#c7c7c7"/><path d="m762.35 81.82 84.71 81.82 84.7-81.82z" fill="#d8d8d8"/><path d="m677.65 163.64-84.71-81.82-84.7 81.82z" fill="#f4f4f4"/><path d="m508.24 163.64-84.71-81.82-84.71 81.82z" fill="#d7d7d7"/><path d="m254.12 81.82 84.7 81.82 84.71-81.82z" fill="#d5d5d5"/><path d="m423.53 81.82 84.71 81.82 84.7-81.82z" fill="#eee"/><path d="m338.82 163.64-84.7-81.82-84.71 81.82z" fill="#c7c7c7"/><path d="m169.41 163.64-84.7-81.82-84.71 81.82z" fill="#e7e7e7"/><path d="m0 81.82v81.82l84.71-81.82z" fill="#e5e5e5"/><path d="m84.71 81.82 84.7 81.82 84.71-81.82z" fill="#c6c6c6"/><path d="m1270.59 245.46-84.71-81.82-84.7 81.82z" fill="none" stroke="#f2f2f2" stroke-miterlimit="10"/><path d="m1101.18 245.46-84.71-81.82-84.71 81.82z" fill="#f1f1f1"/><path d="m847.06 163.64 84.7 81.82 84.71-81.82z" fill="#ececec"/><path d="m1016.47 163.64 84.71 81.82 84.7-81.82z" fill="none" stroke="#f2f2f2" stroke-miterlimit="10"/><path d="m1270.59 245.46-84.71-81.82-84.7 81.82z" fill="#ebebeb"/><path d="m1016.47 163.64 84.71 81.82 84.7-81.82z" fill="#c7c7c7"/><path d="m1440 245.46-84.71-81.82-84.7 81.82z" fill="#b5b5b5"/><path d="m1185.88 163.64 84.71 81.82 84.7-81.82z" fill="#797979"/><path d="m1355.29 163.64 84.71 81.82v-81.82z" fill="#d2d2d2"/><path d="m931.76 245.46-84.7-81.82-84.71 81.82z" fill="#ededed"/><path d="m762.35 245.46-84.7-81.82-84.71 81.82z" fill="#8c8c8c"/><path d="m508.24 163.64 84.7 81.82 84.71-81.82z" fill="#686868"/><path d="m677.65 163.64 84.7 81.82 84.71-81.82z" fill="#e9e9e9"/><path d="m592.94 245.46-84.7-81.82-84.71 81.82z" fill="#c7c7c7"/><path d="m423.53 245.46-84.71-81.82-84.7 81.82z" fill="#f4f4f4"/><path d="m169.41 163.64 84.71 81.82 84.7-81.82z" fill="#ededed"/><path d="m338.82 163.64 84.71 81.82 84.71-81.82z" fill="#ededed"/><path d="m254.12 245.46-84.71-81.82-84.7 81.82z" fill="#acacac"/><path d="m84.71 245.46-84.71-81.82v81.82z" fill="#d0d0d0"/><path d="m0 163.64 84.71 81.82 84.7-81.82z" fill="#ededed"/><path d="m1355.29 327.27-84.7-81.81-84.71 81.81z" fill="#e6e6e6"/><path d="m1101.18 245.46 84.7 81.81 84.71-81.81z" fill="#f1f1f1"/><path d="m1440 327.27v-81.81l-84.71 81.81z" fill="#bababa"/><path d="m1270.59 245.46 84.7 81.81 84.71-81.81z" fill="#e3e3e3"/><path d="m1185.88 327.27-84.7-81.81-84.71 81.81z" fill="#a4a4a4"/><path d="m1016.47 327.27-84.71-81.81-84.7 81.81z" fill="#ededed"/><path d="m762.35 245.46 84.71 81.81 84.7-81.81z" fill="#dfdfdf"/><path d="m931.76 245.46 84.71 81.81 84.71-81.81z" fill="#f1f1f1"/><path d="m847.06 327.27-84.71-81.81-84.7 81.81z" fill="#d7d7d7"/><path d="m677.65 327.27-84.71-81.81-84.7 81.81z" fill="#f0f0f0"/><path d="m423.53 245.46 84.71 81.81 84.7-81.81z" fill="#ebebeb"/><path d="m592.94 245.46 84.71 81.81 84.7-81.81z" fill="#e5e5e5"/><path d="m508.24 327.27-84.71-81.81-84.71 81.81z" fill="#e8e8e8"/><path d="m338.82 327.27-84.7-81.81-84.71 81.81z" fill="#acacac"/><path d="m84.71 245.46 84.7 81.81 84.71-81.81z" fill="#ededed"/><path d="m254.12 245.46 84.7 81.81 84.71-81.81z" fill="#e6e6e6"/><path d="m169.41 327.27-84.7-81.81-84.71 81.81z" fill="#9d9d9d"/><path d="m0 245.46v81.81l84.71-81.81z" fill="#a8a8a8"/><path d="m1016.47 327.27 84.71 81.82 84.7-81.82z" fill="#707070"/><path d="m1270.59 409.09-84.71-81.82-84.7 81.82z" fill="#a9a9a9"/><path d="m1440 409.09-84.71-81.82-84.7 81.82z" fill="#e3e3e3"/><path d="m1185.88 327.27 84.71 81.82 84.7-81.82z" fill="#8e8e8e"/><path d="m1355.29 327.27 84.71 81.82v-81.82z" fill="#959595"/><path d="m1101.18 409.09-84.71-81.82-84.71 81.82z" fill="#6b6b6b"/><path d="m931.76 409.09-84.7-81.82-84.71 81.82z" fill="#e4e4e4"/><path d="m677.65 327.27 84.7 81.82 84.71-81.82z" fill="#d3d3d3"/><path d="m847.06 327.27 84.7 81.82 84.71-81.82z" fill="#dfdfdf"/><path d="m762.35 409.09-84.7-81.82-84.71 81.82z" fill="#e1e1e1"/><path d="m592.94 409.09-84.7-81.82-84.71 81.82z" fill="#d0d0d0"/><path d="m338.82 327.27 84.71 81.82 84.71-81.82z" fill="#a8a8a8"/><path d="m508.24 327.27 84.7 81.82 84.71-81.82z" fill="#e4e4e4"/><path d="m423.53 409.09-84.71-81.82-84.7 81.82z" fill="#9d9d9d"/><path d="m254.12 409.09-84.71-81.82-84.7 81.82z" fill="#ababab"/><path d="m0 327.27 84.71 81.82 84.7-81.82z" fill="#a3a3a3"/><path d="m169.41 327.27 84.71 81.82 84.7-81.82z" fill="#b6b6b6"/><path d="m84.71 409.09-84.71-81.82v81.82z" fill="#aeaeae"/><path d="m1355.29 490.91-84.7-81.82-84.71 81.82z" fill="#e5e5e5"/><path d="m1101.18 409.09 84.7 81.82 84.71-81.82z" fill="#d3d3d3"/><path d="m1440 490.91v-81.82l-84.71 81.82z" fill="#9c9c9c"/><path d="m1270.59 409.09 84.7 81.82 84.71-81.82z" fill="#a9a9a9"/><path d="m1185.88 490.91-84.7-81.82-84.71 81.82z" fill="#d8d8d8"/><path d="m931.76 409.09 84.71 81.82 84.71-81.82z" fill="#b5b5b5"/><path d="m1016.47 490.91-84.71-81.82-84.7 81.82z" fill="#bbb"/><path d="m847.06 490.91-84.71-81.82-84.7 81.82z" fill="#686868"/><path d="m592.94 409.09 84.71 81.82 84.7-81.82z" fill="#8c8c8c"/><path d="m762.35 409.09 84.71 81.82 84.7-81.82z" fill="#e4e4e4"/><path d="m677.65 490.91-84.71-81.82-84.7 81.82z" fill="#c7c7c7"/><path d="m508.24 490.91-84.71-81.82-84.71 81.82z" fill="#d9d9d9"/><path d="m254.12 409.09 84.7 81.82 84.71-81.82z" fill="#b7b7b7"/><path d="m423.53 409.09 84.71 81.82 84.7-81.82z" fill="#e6e6e6"/><path d="m338.82 490.91-84.7-81.82-84.71 81.82z" fill="#7c7c7c"/><path d="m169.41 490.91-84.7-81.82-84.71 81.82z" fill="#bfbfbf"/><path d="m0 409.09v81.82l84.71-81.82z" fill="#d3d3d3"/><path d="m84.71 409.09 84.7 81.82 84.71-81.82z" fill="#797979"/><path d="m1016.47 490.91 84.71 81.82 84.7-81.82z" fill="#e9e9e9"/><path d="m847.06 490.91 84.7 81.82 84.71-81.82z" fill="#d7d7d7"/><path d="m1270.59 572.73-84.71-81.82-84.7 81.82z" fill="none" stroke="#f2f2f2" stroke-miterlimit="10"/><path d="m1270.59 572.73-84.71-81.82-84.7 81.82z" fill="#bdbdbd"/><path d="m1440 572.73-84.71-81.82-84.7 81.82z" fill="#656565"/><path d="m1185.88 490.91 84.71 81.82 84.7-81.82z" fill="#9e9e9e"/><path d="m1355.29 490.91 84.71 81.82v-81.82z" fill="#6a6a6a"/><path d="m1101.18 572.73-84.71-81.82-84.71 81.82z" fill="#939393"/><path d="m931.76 572.73-84.7-81.82-84.71 81.82z" fill="#d4d4d4"/><path d="m762.35 572.73-84.7-81.82-84.71 81.82z" fill="#bfbfbf"/><path d="m508.24 490.91 84.7 81.82 84.71-81.82z" fill="#bfbfbf"/><path d="m677.65 490.91 84.7 81.82 84.71-81.82z" fill="#cfcfcf"/><path d="m592.94 572.73-84.7-81.82-84.71 81.82z" fill="#e8e8e8"/><path d="m423.53 572.73-84.71-81.82-84.7 81.82z" fill="#d0d0d0"/><path d="m169.41 490.91 84.71 81.82 84.7-81.82z" fill="#dcdcdc"/><path d="m338.82 490.91 84.71 81.82 84.71-81.82z" fill="#eee"/><path d="m254.12 572.73-84.71-81.82-84.7 81.82z" fill="#d8d8d8"/><path d="m84.71 572.73-84.71-81.82v81.82z" fill="#ababab"/><path d="m0 490.91 84.71 81.82 84.7-81.82z" fill="#d0d0d0"/><path d="m1355.29 654.54-84.7-81.81-84.71 81.81z" fill="#c1c1c1"/><path d="m1101.18 572.73 84.7 81.81 84.71-81.81z" fill="#acacac"/><path d="m1440 654.54v-81.81l-84.71 81.81z" fill="#d1d1d1"/><path d="m1270.59 572.73 84.7 81.81 84.71-81.81z" fill="#b2b2b2"/><path d="m1185.88 654.54-84.7-81.81-84.71 81.81z" fill="#818181"/><path d="m931.76 572.73 84.71 81.81 84.71-81.81z" fill="#e9e9e9"/><path d="m1016.47 654.54-84.71-81.81-84.7 81.81z" fill="#bbb"/><path d="m762.35 572.73 84.71 81.81 84.7-81.81z" fill="#dbdbdb"/><path d="m847.06 654.54-84.71-81.81-84.7 81.81z" fill="#eaeaea"/><path d="m677.65 654.54-84.71-81.81-84.7 81.81z" fill="#e2e2e2"/><path d="m423.53 572.73 84.71 81.81 84.7-81.81z" fill="#ababab"/><path d="m592.94 572.73 84.71 81.81 84.7-81.81z" fill="#f4f4f4"/><path d="m508.24 654.54-84.71-81.81-84.71 81.81z" fill="#7c7c7c"/><path d="m338.82 654.54-84.7-81.81-84.71 81.81z" fill="#737373"/><path d="m84.71 572.73 84.7 81.81 84.71-81.81z" fill="#eaeaea"/><path d="m254.12 572.73 84.7 81.81 84.71-81.81z" fill="#e2e2e2"/><path d="m169.41 654.54-84.7-81.81-84.71 81.81z" fill="#8f8f8f"/><path d="m0 572.73v81.81l84.71-81.81z" fill="#9d9d9d"/><path d="m1016.47 654.54 84.71 81.82 84.7-81.82z" fill="#b9b9b9"/><path d="m847.06 654.54 84.7 81.82 84.71-81.82z" fill="#e2e2e2"/><path d="m1270.59 736.36-84.71-81.82-84.7 81.82z" fill="#989898"/><path d="m1270.59 736.36-84.71-81.82-84.7 81.82z" fill="#989898"/><path d="m1440 736.36-84.71-81.82-84.7 81.82z" fill="#b8b8b8"/><path d="m1185.88 654.54 84.71 81.82 84.7-81.82z" fill="#9d9d9d"/><path d="m1355.29 654.54 84.71 81.82v-81.82z" fill="#afafaf"/><path d="m1355.29 654.54 84.71 81.82v-81.82z" fill="#afafaf"/><path d="m1101.18 736.36-84.71-81.82-84.71 81.82z" fill="#dadada"/><path d="m931.76 736.36-84.7-81.82-84.71 81.82z" fill="#c2c2c2"/><path d="m677.65 654.54 84.7 81.82 84.71-81.82z" fill="#afafaf"/><path d="m762.35 736.36-84.7-81.82-84.71 81.82z" fill="#eaeaea"/><path d="m592.94 736.36-84.7-81.82-84.71 81.82z" fill="#d1d1d1"/><path d="m338.82 654.54 84.71 81.82 84.71-81.82z" fill="#bfbfbf"/><path d="m508.24 654.54 84.7 81.82 84.71-81.82z" fill="#7f7f7f"/><path d="m423.53 736.36-84.71-81.82-84.7 81.82z" fill="#686868"/><path d="m254.12 736.36-84.71-81.82-84.7 81.82z" fill="#d3d3d3"/><path d="m0 654.54 84.71 81.82 84.7-81.82z" fill="#d3d3d3"/><path d="m169.41 654.54 84.71 81.82 84.7-81.82z" fill="#7c7c7c"/><path d="m84.71 736.36-84.71-81.82v81.82z" fill="#cdcdcd"/><path d="m1355.29 818.18-84.7-81.82-84.71 81.82z" fill="#a3a3a3"/><path d="m1101.18 736.36 84.7 81.82 84.71-81.82z" fill="#cfcfcf"/><path d="m1440 818.18v-81.82l-84.71 81.82z" fill="#6d6d6d"/><path d="m1270.59 736.36 84.7 81.82 84.71-81.82z" fill="#989898"/><path d="m1185.88 818.18-84.7-81.82-84.71 81.82z" fill="#b2b2b2"/><path d="m931.76 736.36 84.71 81.82 84.71-81.82z" fill="#8b8b8b"/><path d="m1016.47 818.18-84.71-81.82-84.7 81.82z" fill="#8a8a8a"/><path d="m762.35 736.36 84.71 81.82 84.7-81.82z" fill="#b1b1b1"/><path d="m847.06 818.18-84.71-81.82-84.7 81.82z" fill="#b8b8b8"/><path d="m592.94 736.36 84.71 81.82 84.7-81.82z" fill="#a4a4a4"/><path d="m677.65 818.18-84.71-81.82-84.7 81.82z" fill="#d9d9d9"/><path d="m508.24 818.18-84.71-81.82-84.71 81.82z" fill="#bbb"/><path d="m254.12 736.36 84.7 81.82 84.71-81.82z" fill="#d0d0d0"/><path d="m423.53 736.36 84.71 81.82 84.7-81.82z" fill="#d5d5d5"/><path d="m338.82 818.18-84.7-81.82-84.71 81.82z" fill="#b4b4b4"/><path d="m169.41 818.18-84.7-81.82-84.71 81.82z" fill="#9a9a9a"/><path d="m0 736.36v81.82l84.71-81.82z" fill="#9a9a9a"/><path d="m84.71 736.36 84.7 81.82 84.71-81.82z" fill="#9e9e9e"/><path d="m1016.47 818.18 84.71 81.82 84.7-81.82z" fill="#8b8b8b"/><path d="m847.06 818.18 84.7 81.82 84.71-81.82z" fill="#9d9d9d"/><path d="m1270.59 900-84.71-81.82-84.7 81.82z" fill="#b1b1b1"/><path d="m1270.59 900-84.71-81.82-84.7 81.82z" fill="#e2e2e2"/><path d="m1440 900-84.71-81.82-84.7 81.82z" fill="#989898"/><path d="m1185.88 818.18 84.71 81.82 84.7-81.82z" fill="#cfcfcf"/><path d="m1355.29 818.18 84.71 81.82v-81.82z" fill="#b1b1b1"/><path d="m1355.29 818.18 84.71 81.82v-81.82z" fill="#e2e2e2"/><path d="m1101.18 900-84.71-81.82-84.71 81.82z" fill="#b9b9b9"/><path d="m931.76 900-84.7-81.82-84.71 81.82z" fill="#c2c2c2"/><path d="m677.65 818.18 84.7 81.82 84.71-81.82z" fill="#a4a4a4"/><path d="m762.35 900-84.7-81.82-84.71 81.82z" fill="#b8b8b8"/><path d="m508.24 818.18 84.7 81.82 84.71-81.82z" fill="#d9d9d9"/><path d="m592.94 900-84.7-81.82-84.71 81.82z" fill="#a4a4a4"/><path d="m423.53 900-84.71-81.82-84.7 81.82z" fill="#d0d0d0"/><path d="m169.41 818.18 84.71 81.82 84.7-81.82z" fill="#9e9e9e"/><path d="m338.82 818.18 84.71 81.82 84.71-81.82z" fill="#939393"/><path d="m254.12 900-84.71-81.82-84.7 81.82z" fill="#b4b4b4"/><path d="m84.71 900-84.71-81.82v81.82z" fill="#9d9d9d"/><path d="m0 818.18 84.71 81.82 84.7-81.82z" fill="#cdcdcd"/></g></svg>